<?xml version="1.0" encoding="iso-8859-1"?>
<!-- Uploaded to: SVG Repo, www.svgrepo.com, Generator: SVG Repo Mixer Tools -->
<!DOCTYPE svg PUBLIC "-//W3C//DTD SVG 1.1//EN" "http://www.w3.org/Graphics/SVG/1.1/DTD/svg11.dtd">
<svg fill="#000000" version="1.1" id="Capa_1" xmlns="http://www.w3.org/2000/svg" xmlns:xlink="http://www.w3.org/1999/xlink" 
	 width="800px" height="800px" viewBox="0 0 400 399.999" xml:space="preserve"
	>
<g>
	<g>
		<g>
			<path d="M345.954,275.809c64.767-130.457,50.637-231.652,2.329-264.861c-29.034-19.958-65.271-12.244-94.922,20.042h-9.592
				c0.014-0.335,0.025-0.671,0.025-1.01c0-14.152-11.473-25.625-25.625-25.625h-36.341c-14.152,0-25.625,11.473-25.625,25.625
				c0,0.339,0.014,0.675,0.027,1.01h-9.592C116.989-1.298,80.751-9.013,51.716,10.947C3.412,44.154-10.721,145.339,54.032,275.782
				l-2.197,43.863c-1.041,20.837,6.605,41.455,20.983,56.57c14.382,15.115,34.591,23.783,55.452,23.783h144.59l0.094-0.01
				c41.634-0.658,75.307-34.729,75.307-76.519c0-1.812-0.065-3.638-0.192-5.428L345.954,275.809z M62.65,103.688l-5.438,108.613
				C41.434,168.06,37.87,133.969,38.285,110.885c0.645-35.999,11.588-64.748,29.271-76.904c12.831-8.821,27.961-7.791,43.169,2.438
				C83.7,47.192,64.193,72.919,62.65,103.688z M271.886,355.072h-11.95c-3.646-22.097-22.83-38.953-45.959-38.953h-27.953
				c-23.129,0-42.313,16.855-45.959,38.953H128.27c-8.612,0-16.959-3.581-22.896-9.822c-5.938-6.241-9.096-14.755-8.665-23.358
				l10.814-215.957c0.844-16.833,14.706-30.021,31.561-30.021h121.821c16.854,0,30.718,13.186,31.562,30.02l10.744,214.607
				l0.034,0.554c0.059,0.775,0.088,1.575,0.088,2.377C303.333,340.846,289.239,354.989,271.886,355.072z M337.335,103.689
				c-1.539-30.767-21.044-56.492-48.062-67.267c15.208-10.232,30.34-11.264,43.172-2.441c17.683,12.156,28.625,40.905,29.271,76.904
				c0.415,23.09-3.148,57.193-18.938,101.453L337.335,103.689z"/>
			<path d="M232.583,100.381h-65.129c-21.823,0-39.773,17.072-40.865,38.867l-5.776,115.461c-0.165,3.296,1.034,6.515,3.314,8.899
				c2.267,2.369,5.401,3.709,8.68,3.709c0.021,0,0.044,0,0.065,0l134.389-0.724c3.278-0.018,6.405-1.375,8.659-3.755
				c2.254-2.382,3.438-5.581,3.271-8.854l-5.742-114.738C272.356,117.453,254.405,100.381,232.583,100.381z M244.96,177.085h-89.919
				c-5.918,0-10.717-4.797-10.717-10.715s4.799-10.716,10.717-10.716h89.919c5.919,0,10.718,4.798,10.718,10.716
				S250.879,177.085,244.96,177.085z"/>
		</g>
	</g>
</g>
</svg>